<svg width="90" height="94" viewBox="0 0 90 94" fill="none" xmlns="http://www.w3.org/2000/svg">
<path d="M13.8462 17.4074H41.5385V3.48148C41.5385 2.55814 41.9032 1.67261 42.5523 1.0197C43.2015 0.366798 44.0819 0 45 0C45.9181 0 46.7985 0.366798 47.4477 1.0197C48.0968 1.67261 48.4615 2.55814 48.4615 3.48148V17.4074H76.1538C79.8261 17.4074 83.3479 18.8746 85.9446 21.4862C88.5412 24.0978 90 27.6399 90 31.3333V80.0741C90 83.7675 88.5412 87.3096 85.9446 89.9212C83.3479 92.5328 79.8261 94 76.1538 94H13.8462C10.1739 94 6.6521 92.5328 4.05544 89.9212C1.45879 87.3096 0 83.7675 0 80.0741V31.3333C0 27.6399 1.45879 24.0978 4.05544 21.4862C6.6521 18.8746 10.1739 17.4074 13.8462 17.4074ZM6.92307 80.0741C6.92307 81.9208 7.65247 83.6918 8.9508 84.9976C10.2491 86.3034 12.01 87.037 13.8462 87.037H76.1538C77.99 87.037 79.7509 86.3034 81.0492 84.9976C82.3475 83.6918 83.0769 81.9208 83.0769 80.0741V31.3333C83.0769 29.4866 82.3475 27.7156 81.0492 26.4098C79.7509 25.104 77.99 24.3704 76.1538 24.3704H13.8462C12.01 24.3704 10.2491 25.104 8.9508 26.4098C7.65247 27.7156 6.92307 29.4866 6.92307 31.3333V80.0741ZM29.4231 55.7037H60.5769C63.7901 55.7037 66.8717 56.9875 69.1438 59.2727C71.4159 61.5578 72.6923 64.6572 72.6923 67.8889C72.6923 71.1206 71.4159 74.22 69.1438 76.5051C66.8717 78.7903 63.7901 80.0741 60.5769 80.0741H29.4231C26.2099 80.0741 23.1283 78.7903 20.8562 76.5051C18.5841 74.22 17.3077 71.1206 17.3077 67.8889C17.3077 64.6572 18.5841 61.5578 20.8562 59.2727C23.1283 56.9875 26.2099 55.7037 29.4231 55.7037ZM39.8077 62.6667V73.1111H50.1923V62.6667H39.8077ZM65.7692 67.8889C65.7692 66.5039 65.2222 65.1756 64.2484 64.1962C63.2747 63.2169 61.954 62.6667 60.5769 62.6667H57.1154V73.1111H60.5769C61.954 73.1111 63.2747 72.5609 64.2484 71.5816C65.2222 70.6022 65.7692 69.2739 65.7692 67.8889ZM29.4231 73.1111H32.8846V62.6667H29.4231C28.046 62.6667 26.7253 63.2169 25.7516 64.1962C24.7778 65.1756 24.2308 66.5039 24.2308 67.8889C24.2308 69.2739 24.7778 70.6022 25.7516 71.5816C26.7253 72.5609 28.046 73.1111 29.4231 73.1111ZM69.2308 43.5185C69.2308 42.4857 68.9262 41.476 68.3557 40.6172C67.7852 39.7584 66.9742 39.0891 66.0255 38.6938C65.0767 38.2986 64.0327 38.1951 63.0255 38.3966C62.0183 38.5981 61.0931 39.0955 60.3669 39.8259C59.6408 40.5562 59.1463 41.4867 58.9459 42.4997C58.7456 43.5127 58.8484 44.5627 59.2414 45.517C59.6344 46.4712 60.2999 47.2868 61.1538 47.8606C62.0076 48.4345 63.0115 48.7407 64.0385 48.7407C65.4155 48.7407 66.7362 48.1905 67.71 47.2112C68.6837 46.2318 69.2308 44.9035 69.2308 43.5185ZM31.1538 43.5185C31.1538 42.4857 30.8493 41.476 30.2788 40.6172C29.7082 39.7584 28.8973 39.0891 27.9485 38.6938C26.9998 38.2986 25.9558 38.1951 24.9486 38.3966C23.9414 38.5981 23.0162 39.0955 22.29 39.8259C21.5639 40.5562 21.0693 41.4867 20.869 42.4997C20.6686 43.5127 20.7715 44.5627 21.1645 45.517C21.5575 46.4712 22.223 47.2868 23.0768 47.8606C23.9307 48.4345 24.9346 48.7407 25.9615 48.7407C27.3386 48.7407 28.6593 48.1905 29.633 47.2112C30.6068 46.2318 31.1538 44.9035 31.1538 43.5185Z" fill="#1F1D1D"/>
</svg>
